<svg xmlns="http://www.w3.org/2000/svg" width="11" height="11" viewBox="0 0 11 11">
  <defs>
    <style>
      .cls-1 {
        fill: #f9b81e;
        fill-rule: evenodd;
      }
    </style>
  </defs>
  <path id="ic_phone" class="cls-1" d="M136.752,70.7l-1.7-1.7a0.883,0.883,0,0,0-1.248.024l-0.856.858-0.169-.094a8.042,8.042,0,0,1-3.549-3.56c-0.032-.058-0.062-0.112-0.092-0.165l0.574-.575L130,65.2a0.888,0.888,0,0,0,.023-1.252l-1.7-1.7a0.882,0.882,0,0,0-1.248.024l-0.479.483,0.013,0.013a2.765,2.765,0,0,0-.394.7,2.891,2.891,0,0,0-.176.708c-0.224,1.864.626,3.568,2.931,5.88,3.187,3.2,5.755,2.954,5.866,2.942a2.885,2.885,0,0,0,.708-0.178,2.785,2.785,0,0,0,.693-0.394l0.01,0.009,0.485-.476A0.89,0.89,0,0,0,136.752,70.7Z" transform="translate(-126 -62)"/>
</svg>
